<?xml version="1.0" standalone="no"?>
<!DOCTYPE svg PUBLIC "-//W3C//DTD SVG 20010904//EN"
 "http://www.w3.org/TR/2001/REC-SVG-20010904/DTD/svg10.dtd">
<svg version="1.0" xmlns="http://www.w3.org/2000/svg"
 width="720.000000pt" height="720.000000pt" viewBox="0 0 720.000000 720.000000"
 preserveAspectRatio="xMidYMid meet">
<metadata>
Created by potrace 1.11, written by Peter Selinger 2001-2013
</metadata>
<g transform="translate(0.000000,720.000000) scale(0.100000,-0.100000)"
fill="#000000" stroke="none">
<path d="M1910 6792 c-492 -269 -887 -608 -1205 -1036 -217 -292 -428 -696
-520 -996 -104 -341 -152 -565 -172 -805 -11 -133 -10 -614 1 -690 5 -33 8
-71 7 -84 -4 -73 68 -427 118 -581 17 -52 31 -100 31 -108 0 -26 102 -287 156
-397 140 -288 244 -463 391 -658 328 -432 737 -780 1214 -1031 l126 -66 199 0
199 1 -103 39 c-221 84 -487 224 -697 368 -406 277 -732 620 -1009 1060 l-26
42 122 0 123 0 35 -52 c366 -543 892 -973 1480 -1210 298 -120 605 -195 935
-228 103 -10 518 -15 533 -6 4 2 41 7 82 10 41 4 90 9 109 13 19 3 42 7 50 8
127 13 356 67 541 126 548 177 1083 538 1465 989 72 85 221 285 244 327 11 22
18 23 121 23 61 0 110 -4 110 -8 0 -18 -113 -189 -209 -316 -278 -369 -620
-673 -1023 -910 -129 -76 -359 -186 -488 -236 l-105 -39 198 -1 197 0 98 49
c510 257 1011 696 1331 1166 87 127 181 282 181 298 0 7 27 59 60 117 96 168
157 320 256 640 42 137 101 425 109 530 3 41 10 110 16 152 11 73 7 534 -5
683 -12 141 -70 472 -95 537 -5 13 -9 26 -10 30 -1 4 -8 25 -16 47 -7 22 -16
55 -19 74 -15 97 -126 367 -242 592 -109 212 -182 331 -307 497 -326 436 -714
772 -1192 1032 l-140 76 -195 0 -195 -1 115 -46 c602 -243 1142 -668 1522
-1198 63 -89 178 -266 178 -276 0 -6 -218 -4 -224 2 -2 2 -29 42 -61 89 -252
373 -607 712 -990 947 -72 44 -245 138 -297 162 -35 16 -83 37 -108 49 -128
58 -387 146 -523 177 -10 2 -26 6 -35 9 -19 6 -52 12 -132 26 -30 6 -66 12
-80 15 -14 3 -83 13 -155 23 -139 18 -494 23 -658 10 -491 -42 -1005 -212
-1423 -471 -96 -59 -257 -172 -310 -216 -17 -14 -53 -44 -80 -65 -83 -67 -356
-346 -440 -451 -44 -55 -113 -148 -153 -205 l-72 -105 -110 0 c-61 0 -115 2
-120 6 -12 7 172 284 272 409 380 476 862 836 1424 1065 l110 44 -195 0 -195
1 -125 -68z m-1150 -1606 c0 -2 -29 -62 -64 -133 -36 -70 -86 -182 -111 -248
-26 -66 -51 -124 -55 -129 -8 -8 -207 -12 -215 -4 -7 7 93 267 151 390 l59
127 118 1 c64 0 117 -2 117 -4z m5918 -9 c25 -29 212 -474 212 -503 0 -2 -47
-4 -105 -4 -68 0 -105 4 -105 11 0 24 -95 252 -156 372 -35 71 -64 131 -64
133 0 2 47 4 104 4 72 0 107 -4 114 -13z m-6201 -660 c2 -3 -9 -61 -26 -128
-17 -68 -41 -185 -53 -259 l-21 -135 -104 0 -103 0 0 30 c0 42 35 238 66 377
19 81 32 118 42 120 24 5 193 0 199 -5z m6449 4 c13 -1 57 -185 84 -352 11
-68 22 -135 24 -149 l5 -26 -94 1 c-51 0 -96 2 -98 5 -3 3 -8 25 -12 50 -20
143 -74 398 -95 447 -9 21 -6 22 43 25 44 3 88 2 143 -1z m-6569 -908 c0 -131
3 -250 6 -264 l5 -26 -108 0 -108 0 -7 153 c-4 83 -4 202 0 263 l7 111 103 0
102 0 0 -237z m6696 170 c9 -87 9 -241 1 -364 l-7 -97 -96 2 -96 1 5 70 c2 39
3 157 3 263 l-1 192 92 0 93 0 6 -67z m-6669 -632 c3 -14 8 -42 11 -61 16
-102 38 -207 65 -309 17 -62 30 -118 30 -123 0 -5 -48 -7 -107 -6 l-108 3 -27
105 c-31 117 -81 396 -74 408 2 4 49 7 105 8 100 0 100 0 105 -25z m6641 -26
c-9 -72 -61 -329 -82 -405 l-18 -65 -98 -3 c-65 -2 -97 1 -97 8 0 6 11 50 24
98 14 48 37 152 51 232 38 204 26 188 135 186 l91 -1 -6 -50z m-6439 -730 c24
-61 76 -173 114 -250 39 -78 70 -143 70 -146 0 -2 -54 -4 -119 -4 -66 0 -119
2 -119 5 1 3 -20 50 -46 105 -85 177 -162 377 -153 392 3 5 51 8 107 8 l102 0
44 -110z m6288 104 c11 -11 -196 -497 -213 -500 -26 -6 -211 -3 -211 3 0 4 22
49 49 100 52 98 153 324 164 370 4 15 15 28 25 30 24 5 181 3 186 -3z"/>
</g>
</svg>
